<svg version="1.1" xmlns="http://www.w3.org/2000/svg" width="2000" height="2000" >
<circle cx="1000" cy="1000" r="1000" fill="red" stroke="blue" />
<rect width="200" height="100" x="2" y="937" fill="green" stroke="blue" />
<rect width="200" height="100" x="10" y="1037" fill="green" stroke="blue" />
<rect width="200" height="100" x="14" y="834" fill="green" stroke="blue" />
<rect width="200" height="100" x="29" y="1137" fill="green" stroke="blue" />
<rect width="200" height="100" x="37" y="731" fill="green" stroke="blue" />
<rect width="200" height="100" x="59" y="1237" fill="green" stroke="blue" />
<rect width="200" height="100" x="71" y="630" fill="green" stroke="blue" />
<rect width="200" height="100" x="101" y="1337" fill="green" stroke="blue" />
<rect width="200" height="100" x="118" y="529" fill="green" stroke="blue" />
<rect width="200" height="100" x="156" y="1437" fill="green" stroke="blue" />
<rect width="200" height="100" x="180" y="428" fill="green" stroke="blue" />
<rect width="200" height="100" x="202" y="934" fill="green" stroke="blue" />
<rect width="200" height="100" x="210" y="1034" fill="green" stroke="blue" />
<rect width="200" height="100" x="214" y="831" fill="green" stroke="blue" />
<rect width="200" height="100" x="229" y="1134" fill="green" stroke="blue" />
<rect width="200" height="100" x="229" y="1537" fill="green" stroke="blue" />
<rect width="200" height="100" x="237" y="730" fill="green" stroke="blue" />
<rect width="200" height="100" x="259" y="1234" fill="green" stroke="blue" />
<rect width="200" height="100" x="260" y="328" fill="green" stroke="blue" />
<rect width="200" height="100" x="271" y="629" fill="green" stroke="blue" />
<rect width="200" height="100" x="301" y="1334" fill="green" stroke="blue" />
<rect width="200" height="100" x="318" y="528" fill="green" stroke="blue" />
<rect width="200" height="100" x="324" y="1637" fill="green" stroke="blue" />
<rect width="200" height="100" x="356" y="1434" fill="green" stroke="blue" />
<rect width="200" height="100" x="365" y="228" fill="green" stroke="blue" />
<rect width="200" height="100" x="380" y="428" fill="green" stroke="blue" />
<rect width="200" height="100" x="402" y="931" fill="green" stroke="blue" />
<rect width="200" height="100" x="410" y="1031" fill="green" stroke="blue" />
<rect width="200" height="100" x="414" y="830" fill="green" stroke="blue" />
<rect width="200" height="100" x="429" y="1131" fill="green" stroke="blue" />
<rect width="200" height="100" x="429" y="1534" fill="green" stroke="blue" />
<rect width="200" height="100" x="437" y="729" fill="green" stroke="blue" />
<rect width="200" height="100" x="452" y="1737" fill="green" stroke="blue" />
<rect width="200" height="100" x="459" y="1231" fill="green" stroke="blue" />
<rect width="200" height="100" x="460" y="328" fill="green" stroke="blue" />
<rect width="200" height="100" x="471" y="628" fill="green" stroke="blue" />
<rect width="200" height="100" x="501" y="1331" fill="green" stroke="blue" />
<rect width="200" height="100" x="511" y="128" fill="green" stroke="blue" />
<rect width="200" height="100" x="518" y="528" fill="green" stroke="blue" />
<rect width="200" height="100" x="524" y="1634" fill="green" stroke="blue" />
<rect width="200" height="100" x="556" y="1431" fill="green" stroke="blue" />
<rect width="200" height="100" x="565" y="228" fill="green" stroke="blue" />
<rect width="200" height="100" x="580" y="428" fill="green" stroke="blue" />
<rect width="200" height="100" x="602" y="930" fill="green" stroke="blue" />
<rect width="200" height="100" x="610" y="1030" fill="green" stroke="blue" />
<rect width="200" height="100" x="614" y="829" fill="green" stroke="blue" />
<rect width="200" height="100" x="629" y="1130" fill="green" stroke="blue" />
<rect width="200" height="100" x="629" y="1531" fill="green" stroke="blue" />
<rect width="200" height="100" x="637" y="728" fill="green" stroke="blue" />
<rect width="200" height="100" x="648" y="1837" fill="green" stroke="blue" />
<rect width="200" height="100" x="652" y="1734" fill="green" stroke="blue" />
<rect width="200" height="100" x="659" y="1230" fill="green" stroke="blue" />
<rect width="200" height="100" x="660" y="328" fill="green" stroke="blue" />
<rect width="200" height="100" x="671" y="628" fill="green" stroke="blue" />
<rect width="200" height="100" x="701" y="1330" fill="green" stroke="blue" />
<rect width="200" height="100" x="711" y="43" fill="green" stroke="blue" />
<rect width="200" height="100" x="718" y="528" fill="green" stroke="blue" />
<rect width="200" height="100" x="724" y="1631" fill="green" stroke="blue" />
<rect width="200" height="100" x="756" y="1430" fill="green" stroke="blue" />
<rect width="200" height="100" x="765" y="143" fill="green" stroke="blue" />
<rect width="200" height="100" x="780" y="428" fill="green" stroke="blue" />
<rect width="200" height="100" x="802" y="929" fill="green" stroke="blue" />
<rect width="200" height="100" x="810" y="1029" fill="green" stroke="blue" />
<rect width="200" height="100" x="814" y="828" fill="green" stroke="blue" />
<rect width="200" height="100" x="829" y="1129" fill="green" stroke="blue" />
<rect width="200" height="100" x="829" y="1530" fill="green" stroke="blue" />
<rect width="200" height="100" x="837" y="728" fill="green" stroke="blue" />
<rect width="200" height="100" x="848" y="1834" fill="green" stroke="blue" />
<rect width="200" height="100" x="852" y="1731" fill="green" stroke="blue" />
<rect width="200" height="100" x="859" y="1229" fill="green" stroke="blue" />
<rect width="200" height="100" x="860" y="243" fill="green" stroke="blue" />
<rect width="200" height="100" x="871" y="628" fill="green" stroke="blue" />
<rect width="200" height="100" x="901" y="1329" fill="green" stroke="blue" />
<rect width="200" height="100" x="911" y="7" fill="green" stroke="blue" />
<rect width="200" height="100" x="918" y="528" fill="green" stroke="blue" />
<rect width="200" height="100" x="924" y="1630" fill="green" stroke="blue" />
<rect width="200" height="100" x="956" y="1429" fill="green" stroke="blue" />
<rect width="200" height="100" x="965" y="107" fill="green" stroke="blue" />
<rect width="200" height="100" x="980" y="343" fill="green" stroke="blue" />
<rect width="200" height="100" x="1002" y="928" fill="green" stroke="blue" />
<rect width="200" height="100" x="1010" y="1028" fill="green" stroke="blue" />
<rect width="200" height="100" x="1014" y="828" fill="green" stroke="blue" />
<rect width="200" height="100" x="1029" y="1128" fill="green" stroke="blue" />
<rect width="200" height="100" x="1029" y="1529" fill="green" stroke="blue" />
<rect width="200" height="100" x="1037" y="728" fill="green" stroke="blue" />
<rect width="200" height="100" x="1048" y="1831" fill="green" stroke="blue" />
<rect width="200" height="100" x="1052" y="1730" fill="green" stroke="blue" />
<rect width="200" height="100" x="1059" y="1228" fill="green" stroke="blue" />
<rect width="200" height="100" x="1060" y="207" fill="green" stroke="blue" />
<rect width="200" height="100" x="1071" y="628" fill="green" stroke="blue" />
<rect width="200" height="100" x="1101" y="1328" fill="green" stroke="blue" />
<rect width="200" height="100" x="1118" y="443" fill="green" stroke="blue" />
<rect width="200" height="100" x="1124" y="1629" fill="green" stroke="blue" />
<rect width="200" height="100" x="1156" y="1428" fill="green" stroke="blue" />
<rect width="200" height="100" x="1165" y="69" fill="green" stroke="blue" />
<rect width="200" height="100" x="1180" y="307" fill="green" stroke="blue" />
<rect width="200" height="100" x="1202" y="928" fill="green" stroke="blue" />
<rect width="200" height="100" x="1210" y="1028" fill="green" stroke="blue" />
<rect width="200" height="100" x="1214" y="828" fill="green" stroke="blue" />
<rect width="200" height="100" x="1229" y="1128" fill="green" stroke="blue" />
<rect width="200" height="100" x="1229" y="1528" fill="green" stroke="blue" />
<rect width="200" height="100" x="1237" y="728" fill="green" stroke="blue" />
<rect width="200" height="100" x="1252" y="1729" fill="green" stroke="blue" />
<rect width="200" height="100" x="1259" y="1228" fill="green" stroke="blue" />
<rect width="200" height="100" x="1260" y="169" fill="green" stroke="blue" />
<rect width="200" height="100" x="1271" y="543" fill="green" stroke="blue" />
<rect width="200" height="100" x="1301" y="1328" fill="green" stroke="blue" />
<rect width="200" height="100" x="1318" y="407" fill="green" stroke="blue" />
<rect width="200" height="100" x="1324" y="1628" fill="green" stroke="blue" />
<rect width="200" height="100" x="1356" y="1428" fill="green" stroke="blue" />
<rect width="200" height="100" x="1380" y="269" fill="green" stroke="blue" />
<rect width="200" height="100" x="1402" y="928" fill="green" stroke="blue" />
<rect width="200" height="100" x="1410" y="1028" fill="green" stroke="blue" />
<rect width="200" height="100" x="1414" y="828" fill="green" stroke="blue" />
<rect width="200" height="100" x="1429" y="1128" fill="green" stroke="blue" />
<rect width="200" height="100" x="1429" y="1528" fill="green" stroke="blue" />
<rect width="200" height="100" x="1437" y="643" fill="green" stroke="blue" />
<rect width="200" height="100" x="1459" y="1228" fill="green" stroke="blue" />
<rect width="200" height="100" x="1471" y="507" fill="green" stroke="blue" />
<rect width="200" height="100" x="1501" y="1328" fill="green" stroke="blue" />
<rect width="200" height="100" x="1518" y="369" fill="green" stroke="blue" />
<rect width="200" height="100" x="1556" y="1428" fill="green" stroke="blue" />
<rect width="200" height="100" x="1602" y="928" fill="green" stroke="blue" />
<rect width="200" height="100" x="1610" y="1028" fill="green" stroke="blue" />
<rect width="200" height="100" x="1614" y="743" fill="green" stroke="blue" />
<rect width="200" height="100" x="1629" y="1128" fill="green" stroke="blue" />
<rect width="200" height="100" x="1637" y="607" fill="green" stroke="blue" />
<rect width="200" height="100" x="1659" y="1228" fill="green" stroke="blue" />
<rect width="200" height="100" x="1671" y="507" fill="green" stroke="blue" />
<rect width="200" height="100" x="1701" y="1328" fill="green" stroke="blue" />
<rect width="100" height="200" x="1810" y="843" fill="green" stroke="blue" />
<rect width="100" height="200" x="1859" y="1043" fill="green" stroke="blue" />
</svg>
