<svg version="1.1" xmlns="http://www.w3.org/2000/svg" width="1100" height="1100" >
<circle cx="550" cy="550" r="550" fill="red" stroke="blue" />
<circle cx="50" cy="550" r="50" fill="green" stroke="blue" />
<circle cx="60" cy="450" r="50" fill="green" stroke="blue" />
<circle cx="60" cy="649" r="50" fill="green" stroke="blue" />
<circle cx="90" cy="354" r="50" fill="green" stroke="blue" />
<circle cx="90" cy="745" r="50" fill="green" stroke="blue" />
<circle cx="138" cy="833" r="50" fill="green" stroke="blue" />
<circle cx="139" cy="266" r="50" fill="green" stroke="blue" />
<circle cx="141" cy="509" r="50" fill="green" stroke="blue" />
<circle cx="151" cy="608" r="50" fill="green" stroke="blue" />
<circle cx="171" cy="413" r="50" fill="green" stroke="blue" />
<circle cx="181" cy="704" r="50" fill="green" stroke="blue" />
<circle cx="203" cy="909" r="50" fill="green" stroke="blue" />
<circle cx="204" cy="189" r="50" fill="green" stroke="blue" />
<circle cx="220" cy="325" r="50" fill="green" stroke="blue" />
<circle cx="229" cy="792" r="50" fill="green" stroke="blue" />
<circle cx="233" cy="548" r="50" fill="green" stroke="blue" />
<circle cx="262" cy="644" r="50" fill="green" stroke="blue" />
<circle cx="263" cy="452" r="50" fill="green" stroke="blue" />
<circle cx="282" cy="971" r="50" fill="green" stroke="blue" />
<circle cx="284" cy="127" r="50" fill="green" stroke="blue" />
<circle cx="285" cy="248" r="50" fill="green" stroke="blue" />
<circle cx="294" cy="868" r="50" fill="green" stroke="blue" />
<circle cx="310" cy="732" r="50" fill="green" stroke="blue" />
<circle cx="312" cy="364" r="50" fill="green" stroke="blue" />
<circle cx="331" cy="525" r="50" fill="green" stroke="blue" />
<circle cx="360" cy="621" r="50" fill="green" stroke="blue" />
<circle cx="365" cy="186" r="50" fill="green" stroke="blue" />
<circle cx="371" cy="1016" r="50" fill="green" stroke="blue" />
<circle cx="374" cy="82" r="50" fill="green" stroke="blue" />
<circle cx="375" cy="808" r="50" fill="green" stroke="blue" />
<circle cx="377" cy="287" r="50" fill="green" stroke="blue" />
<circle cx="380" cy="437" r="50" fill="green" stroke="blue" />
<circle cx="381" cy="917" r="50" fill="green" stroke="blue" />
<circle cx="408" cy="709" r="50" fill="green" stroke="blue" />
<circle cx="429" cy="544" r="50" fill="green" stroke="blue" />
<circle cx="445" cy="360" r="50" fill="green" stroke="blue" />
<circle cx="455" cy="141" r="50" fill="green" stroke="blue" />
<circle cx="462" cy="857" r="50" fill="green" stroke="blue" />
<circle cx="463" cy="975" r="50" fill="green" stroke="blue" />
<circle cx="465" cy="240" r="50" fill="green" stroke="blue" />
<circle cx="474" cy="633" r="50" fill="green" stroke="blue" />
<circle cx="478" cy="456" r="50" fill="green" stroke="blue" />
<circle cx="494" cy="760" r="50" fill="green" stroke="blue" />
<circle cx="502" cy="53" r="50" fill="green" stroke="blue" />
<circle cx="529" cy="542" r="50" fill="green" stroke="blue" />
<circle cx="529" cy="1050" r="50" fill="green" stroke="blue" />
<circle cx="533" cy="313" r="50" fill="green" stroke="blue" />
<circle cx="544" cy="915" r="50" fill="green" stroke="blue" />
<circle cx="547" cy="180" r="50" fill="green" stroke="blue" />
<circle cx="560" cy="684" r="50" fill="green" stroke="blue" />
<circle cx="566" cy="408" r="50" fill="green" stroke="blue" />
<circle cx="575" cy="819" r="50" fill="green" stroke="blue" />
<circle cx="594" cy="92" r="50" fill="green" stroke="blue" />
<circle cx="610" cy="990" r="50" fill="green" stroke="blue" />
<circle cx="612" cy="598" r="50" fill="green" stroke="blue" />
<circle cx="614" cy="254" r="50" fill="green" stroke="blue" />
<circle cx="617" cy="494" r="50" fill="green" stroke="blue" />
<circle cx="641" cy="743" r="50" fill="green" stroke="blue" />
<circle cx="642" cy="893" r="50" fill="green" stroke="blue" />
<circle cx="647" cy="349" r="50" fill="green" stroke="blue" />
<circle cx="661" cy="166" r="50" fill="green" stroke="blue" />
<circle cx="693" cy="71" r="50" fill="green" stroke="blue" />
<circle cx="693" cy="657" r="50" fill="green" stroke="blue" />
<circle cx="698" cy="435" r="50" fill="green" stroke="blue" />
<circle cx="700" cy="550" r="50" fill="green" stroke="blue" />
<circle cx="704" cy="1025" r="50" fill="green" stroke="blue" />
<circle cx="708" cy="817" r="50" fill="green" stroke="blue" />
<circle cx="712" cy="273" r="50" fill="green" stroke="blue" />
<circle cx="736" cy="928" r="50" fill="green" stroke="blue" />
<circle cx="759" cy="146" r="50" fill="green" stroke="blue" />
<circle cx="760" cy="731" r="50" fill="green" stroke="blue" />
<circle cx="763" cy="359" r="50" fill="green" stroke="blue" />
<circle cx="781" cy="491" r="50" fill="green" stroke="blue" />
<circle cx="781" cy="609" r="50" fill="green" stroke="blue" />
<circle cx="802" cy="852" r="50" fill="green" stroke="blue" />
<circle cx="805" cy="235" r="50" fill="green" stroke="blue" />
<circle cx="830" cy="963" r="50" fill="green" stroke="blue" />
<circle cx="846" cy="415" r="50" fill="green" stroke="blue" />
<circle cx="848" cy="683" r="50" fill="green" stroke="blue" />
<circle cx="862" cy="550" r="50" fill="green" stroke="blue" />
<circle cx="864" cy="316" r="50" fill="green" stroke="blue" />
<circle cx="872" cy="780" r="50" fill="green" stroke="blue" />
<circle cx="891" cy="184" r="50" fill="green" stroke="blue" />
<circle cx="896" cy="887" r="50" fill="green" stroke="blue" />
<circle cx="927" cy="474" r="50" fill="green" stroke="blue" />
<circle cx="929" cy="624" r="50" fill="green" stroke="blue" />
<circle cx="945" cy="375" r="50" fill="green" stroke="blue" />
<circle cx="950" cy="265" r="50" fill="green" stroke="blue" />
<circle cx="953" cy="721" r="50" fill="green" stroke="blue" />
<circle cx="970" cy="820" r="50" fill="green" stroke="blue" />
<circle cx="994" cy="548" r="50" fill="green" stroke="blue" />
<circle cx="1022" cy="439" r="50" fill="green" stroke="blue" />
<circle cx="1026" cy="648" r="50" fill="green" stroke="blue" />
</svg>
