<svg version="1.1" xmlns="http://www.w3.org/2000/svg" width="180" height="180" >
<circle cx="90" cy="90" r="90" fill="red" stroke="blue" />
<polygon points="0,79 24,79 12,58" fill="green" stroke="blue" />
<polygon points="0,100 24,100 12,79" fill="green" stroke="blue" />
<polygon points="5,121 29,121 17,100" fill="green" stroke="blue" />
<polygon points="6,58 30,58 18,37" fill="green" stroke="blue" />
<polygon points="15,142 39,142 27,121" fill="green" stroke="blue" />
<polygon points="19,88 43,88 31,67" fill="green" stroke="blue" />
<polygon points="21,42 45,42 33,21" fill="green" stroke="blue" />
<polygon points="22,109 46,109 34,88" fill="green" stroke="blue" />
<polygon points="25,67 49,67 37,46" fill="green" stroke="blue" />
<polygon points="30,158 54,158 42,137" fill="green" stroke="blue" />
<polygon points="32,130 56,130 44,109" fill="green" stroke="blue" />
<polygon points="39,30 63,30 51,9" fill="green" stroke="blue" />
<polygon points="39,95 63,95 51,74" fill="green" stroke="blue" />
<polygon points="40,51 64,51 52,30" fill="green" stroke="blue" />
<polygon points="45,74 69,74 57,53" fill="green" stroke="blue" />
<polygon points="47,146 71,146 59,125" fill="green" stroke="blue" />
<polygon points="47,170 71,170 59,149" fill="green" stroke="blue" />
<polygon points="48,116 72,116 60,95" fill="green" stroke="blue" />
<polygon points="58,39 82,39 70,18" fill="green" stroke="blue" />
<polygon points="60,90 84,90 72,69" fill="green" stroke="blue" />
<polygon points="61,60 85,60 73,39" fill="green" stroke="blue" />
<polygon points="63,132 87,132 75,111" fill="green" stroke="blue" />
<polygon points="64,158 88,158 76,137" fill="green" stroke="blue" />
<polygon points="69,111 93,111 81,90" fill="green" stroke="blue" />
<polygon points="71,179 95,179 83,158" fill="green" stroke="blue" />
<polygon points="73,22 97,22 85,1" fill="green" stroke="blue" />
<polygon points="76,76 100,76 88,55" fill="green" stroke="blue" />
<polygon points="78,46 102,46 90,25" fill="green" stroke="blue" />
<polygon points="80,144 104,144 92,123" fill="green" stroke="blue" />
<polygon points="85,97 109,97 97,76" fill="green" stroke="blue" />
<polygon points="86,123 110,123 98,102" fill="green" stroke="blue" />
<polygon points="87,165 111,165 99,144" fill="green" stroke="blue" />
<polygon points="93,29 117,29 105,8" fill="green" stroke="blue" />
<polygon points="93,62 117,62 105,41" fill="green" stroke="blue" />
<polygon points="101,83 125,83 113,62" fill="green" stroke="blue" />
<polygon points="101,139 125,139 113,118" fill="green" stroke="blue" />
<polygon points="102,109 126,109 114,88" fill="green" stroke="blue" />
<polygon points="108,45 132,45 120,24" fill="green" stroke="blue" />
<polygon points="108,160 132,160 120,139" fill="green" stroke="blue" />
<polygon points="116,66 140,66 128,45" fill="green" stroke="blue" />
<polygon points="117,125 141,125 129,104" fill="green" stroke="blue" />
<polygon points="118,95 142,95 130,74" fill="green" stroke="blue" />
<polygon points="124,146 148,146 136,125" fill="green" stroke="blue" />
<polygon points="128,37 152,37 140,16" fill="green" stroke="blue" />
<polygon points="133,78 157,78 145,57" fill="green" stroke="blue" />
<polygon points="133,111 157,111 145,90" fill="green" stroke="blue" />
<polygon points="140,132 164,132 152,111" fill="green" stroke="blue" />
<polygon points="141,56 165,56 153,35" fill="green" stroke="blue" />
<polygon points="148,94 172,94 160,73" fill="green" stroke="blue" />
</svg>
