<svg version="1.1" xmlns="http://www.w3.org/2000/svg" width="250" height="230" >
<rect width="250" height="230" x="0" y="0" fill="red" stroke="blue" />
<rect width="70" height="20" x="0" y="0" fill="green" stroke="blue" />
<rect width="70" height="20" x="0" y="20" fill="green" stroke="blue" />
<rect width="70" height="20" x="0" y="40" fill="green" stroke="blue" />
<rect width="70" height="20" x="0" y="60" fill="green" stroke="blue" />
<rect width="70" height="20" x="0" y="80" fill="green" stroke="blue" />
<rect width="70" height="20" x="0" y="100" fill="green" stroke="blue" />
<rect width="70" height="20" x="0" y="120" fill="green" stroke="blue" />
<rect width="70" height="20" x="0" y="140" fill="green" stroke="blue" />
<rect width="70" height="20" x="0" y="160" fill="green" stroke="blue" />
<rect width="70" height="20" x="0" y="180" fill="green" stroke="blue" />
<rect width="70" height="20" x="0" y="200" fill="green" stroke="blue" />
<rect width="70" height="20" x="70" y="0" fill="green" stroke="blue" />
<rect width="70" height="20" x="70" y="20" fill="green" stroke="blue" />
<rect width="70" height="20" x="70" y="40" fill="green" stroke="blue" />
<rect width="70" height="20" x="70" y="60" fill="green" stroke="blue" />
<rect width="70" height="20" x="70" y="80" fill="green" stroke="blue" />
<rect width="70" height="20" x="70" y="100" fill="green" stroke="blue" />
<rect width="70" height="20" x="70" y="120" fill="green" stroke="blue" />
<rect width="70" height="20" x="70" y="140" fill="green" stroke="blue" />
<rect width="70" height="20" x="70" y="160" fill="green" stroke="blue" />
<rect width="70" height="20" x="70" y="180" fill="green" stroke="blue" />
<rect width="70" height="20" x="70" y="200" fill="green" stroke="blue" />
<rect width="70" height="20" x="140" y="0" fill="green" stroke="blue" />
<rect width="70" height="20" x="140" y="20" fill="green" stroke="blue" />
<rect width="70" height="20" x="140" y="40" fill="green" stroke="blue" />
<rect width="70" height="20" x="140" y="60" fill="green" stroke="blue" />
<rect width="70" height="20" x="140" y="80" fill="green" stroke="blue" />
<rect width="70" height="20" x="140" y="100" fill="green" stroke="blue" />
<rect width="70" height="20" x="140" y="120" fill="green" stroke="blue" />
<rect width="70" height="20" x="140" y="140" fill="green" stroke="blue" />
<rect width="70" height="20" x="140" y="160" fill="green" stroke="blue" />
<rect width="70" height="20" x="140" y="180" fill="green" stroke="blue" />
<rect width="70" height="20" x="140" y="200" fill="green" stroke="blue" />
<rect width="20" height="70" x="210" y="0" fill="green" stroke="blue" />
<rect width="20" height="70" x="210" y="70" fill="green" stroke="blue" />
<rect width="20" height="70" x="210" y="140" fill="green" stroke="blue" />
<rect width="20" height="70" x="230" y="0" fill="green" stroke="blue" />
<rect width="20" height="70" x="230" y="70" fill="green" stroke="blue" />
<rect width="20" height="70" x="230" y="140" fill="green" stroke="blue" />
</svg>
