<svg version="1.1" xmlns="http://www.w3.org/2000/svg" width="400" height="346" >
<polygon points="0,346 400,346 200,0" fill="red" stroke="blue" />
<polygon points="1,346 41,346 21,312" fill="green" stroke="blue" />
<polygon points="21,312 61,312 41,278" fill="green" stroke="blue" />
<polygon points="40,346 80,346 60,312" fill="green" stroke="blue" />
<polygon points="41,277 81,277 61,243" fill="green" stroke="blue" />
<polygon points="60,311 100,311 80,277" fill="green" stroke="blue" />
<polygon points="61,242 101,242 81,208" fill="green" stroke="blue" />
<polygon points="79,345 119,345 99,311" fill="green" stroke="blue" />
<polygon points="80,276 120,276 100,242" fill="green" stroke="blue" />
<polygon points="81,208 121,208 101,174" fill="green" stroke="blue" />
<polygon points="99,310 139,310 119,276" fill="green" stroke="blue" />
<polygon points="100,242 140,242 120,208" fill="green" stroke="blue" />
<polygon points="101,173 141,173 121,139" fill="green" stroke="blue" />
<polygon points="118,344 158,344 138,310" fill="green" stroke="blue" />
<polygon points="119,276 159,276 139,242" fill="green" stroke="blue" />
<polygon points="120,207 160,207 140,173" fill="green" stroke="blue" />
<polygon points="121,138 161,138 141,104" fill="green" stroke="blue" />
<polygon points="138,310 178,310 158,276" fill="green" stroke="blue" />
<polygon points="139,241 179,241 159,207" fill="green" stroke="blue" />
<polygon points="140,172 180,172 160,138" fill="green" stroke="blue" />
<polygon points="141,104 181,104 161,70" fill="green" stroke="blue" />
<polygon points="156,346 196,346 176,312" fill="green" stroke="blue" />
<polygon points="158,275 198,275 178,241" fill="green" stroke="blue" />
<polygon points="159,206 199,206 179,172" fill="green" stroke="blue" />
<polygon points="160,138 200,138 180,104" fill="green" stroke="blue" />
<polygon points="161,69 201,69 181,35" fill="green" stroke="blue" />
<polygon points="176,312 216,312 196,278" fill="green" stroke="blue" />
<polygon points="178,240 218,240 198,206" fill="green" stroke="blue" />
<polygon points="179,172 219,172 199,138" fill="green" stroke="blue" />
<polygon points="180,103 220,103 200,69" fill="green" stroke="blue" />
<polygon points="195,346 235,346 215,312" fill="green" stroke="blue" />
<polygon points="196,277 236,277 216,243" fill="green" stroke="blue" />
<polygon points="198,206 238,206 218,172" fill="green" stroke="blue" />
<polygon points="199,137 239,137 219,103" fill="green" stroke="blue" />
<polygon points="215,311 255,311 235,277" fill="green" stroke="blue" />
<polygon points="216,242 256,242 236,208" fill="green" stroke="blue" />
<polygon points="218,171 258,171 238,137" fill="green" stroke="blue" />
<polygon points="219,104 259,104 239,70" fill="green" stroke="blue" />
<polygon points="234,345 274,345 254,311" fill="green" stroke="blue" />
<polygon points="235,276 275,276 255,242" fill="green" stroke="blue" />
<polygon points="236,208 276,208 256,174" fill="green" stroke="blue" />
<polygon points="238,138 278,138 258,104" fill="green" stroke="blue" />
<polygon points="254,310 294,310 274,276" fill="green" stroke="blue" />
<polygon points="255,242 295,242 275,208" fill="green" stroke="blue" />
<polygon points="256,173 296,173 276,139" fill="green" stroke="blue" />
<polygon points="273,344 313,344 293,310" fill="green" stroke="blue" />
<polygon points="274,276 314,276 294,242" fill="green" stroke="blue" />
<polygon points="275,207 315,207 295,173" fill="green" stroke="blue" />
<polygon points="293,310 333,310 313,276" fill="green" stroke="blue" />
<polygon points="294,241 334,241 314,207" fill="green" stroke="blue" />
<polygon points="311,346 351,346 331,312" fill="green" stroke="blue" />
<polygon points="313,275 353,275 333,241" fill="green" stroke="blue" />
<polygon points="331,312 371,312 351,278" fill="green" stroke="blue" />
<polygon points="350,346 390,346 370,312" fill="green" stroke="blue" />
</svg>
