<svg version="1.1" xmlns="http://www.w3.org/2000/svg" width="600" height="519" >
<polygon points="0,519 600,519 300,0" fill="red" stroke="blue" />
<rect width="60" height="50" x="30" y="469" fill="green" stroke="blue" />
<rect width="60" height="50" x="59" y="419" fill="green" stroke="blue" />
<rect width="60" height="50" x="88" y="368" fill="green" stroke="blue" />
<rect width="60" height="50" x="90" y="469" fill="green" stroke="blue" />
<rect width="60" height="50" x="117" y="318" fill="green" stroke="blue" />
<rect width="60" height="50" x="119" y="418" fill="green" stroke="blue" />
<rect width="60" height="50" x="146" y="268" fill="green" stroke="blue" />
<rect width="60" height="50" x="148" y="368" fill="green" stroke="blue" />
<rect width="60" height="50" x="150" y="468" fill="green" stroke="blue" />
<rect width="60" height="50" x="175" y="218" fill="green" stroke="blue" />
<rect width="60" height="50" x="177" y="318" fill="green" stroke="blue" />
<rect width="60" height="50" x="179" y="418" fill="green" stroke="blue" />
<rect width="60" height="50" x="204" y="167" fill="green" stroke="blue" />
<rect width="60" height="50" x="206" y="268" fill="green" stroke="blue" />
<rect width="60" height="50" x="208" y="368" fill="green" stroke="blue" />
<rect width="60" height="50" x="210" y="468" fill="green" stroke="blue" />
<rect width="60" height="50" x="233" y="117" fill="green" stroke="blue" />
<rect width="60" height="50" x="235" y="217" fill="green" stroke="blue" />
<rect width="60" height="50" x="237" y="318" fill="green" stroke="blue" />
<rect width="60" height="50" x="239" y="418" fill="green" stroke="blue" />
<rect width="60" height="50" x="262" y="67" fill="green" stroke="blue" />
<rect width="60" height="50" x="264" y="167" fill="green" stroke="blue" />
<rect width="60" height="50" x="266" y="267" fill="green" stroke="blue" />
<rect width="60" height="50" x="268" y="368" fill="green" stroke="blue" />
<rect width="60" height="50" x="270" y="468" fill="green" stroke="blue" />
<rect width="60" height="50" x="293" y="117" fill="green" stroke="blue" />
<rect width="60" height="50" x="295" y="217" fill="green" stroke="blue" />
<rect width="60" height="50" x="297" y="317" fill="green" stroke="blue" />
<rect width="60" height="50" x="299" y="418" fill="green" stroke="blue" />
<rect width="60" height="50" x="324" y="167" fill="green" stroke="blue" />
<rect width="60" height="50" x="326" y="267" fill="green" stroke="blue" />
<rect width="60" height="50" x="328" y="367" fill="green" stroke="blue" />
<rect width="60" height="50" x="330" y="468" fill="green" stroke="blue" />
<rect width="60" height="50" x="355" y="217" fill="green" stroke="blue" />
<rect width="60" height="50" x="357" y="317" fill="green" stroke="blue" />
<rect width="60" height="50" x="359" y="417" fill="green" stroke="blue" />
<rect width="60" height="50" x="386" y="267" fill="green" stroke="blue" />
<rect width="60" height="50" x="388" y="367" fill="green" stroke="blue" />
<rect width="60" height="50" x="390" y="467" fill="green" stroke="blue" />
<rect width="60" height="50" x="417" y="317" fill="green" stroke="blue" />
<rect width="60" height="50" x="419" y="417" fill="green" stroke="blue" />
<rect width="60" height="50" x="448" y="367" fill="green" stroke="blue" />
<rect width="60" height="50" x="450" y="467" fill="green" stroke="blue" />
<rect width="60" height="50" x="479" y="417" fill="green" stroke="blue" />
<rect width="60" height="50" x="510" y="467" fill="green" stroke="blue" />
</svg>
