<svg version="1.1" xmlns="http://www.w3.org/2000/svg" width="750" height="750">
<polygon points="110,100 109.901,103.14 109.606,106.267 109.114,109.369 108.429,112.434 107.553,115.451 106.489,118.406 105.241,121.289 103.815,124.088 102.216,126.791 100.451,129.389 98.5257,131.871 96.4484,134.227 94.2274,136.448 91.8712,138.526 89.3893,140.451 86.7913,142.216 84.0877,143.815 81.289,145.241 78.4062,146.489 75.4508,147.553 72.4345,148.429 69.3691,149.114 66.2667,149.606 63.1395,149.901 60,150 56.8605,149.901 53.7333,149.606 50.6309,149.114 47.5655,148.429 44.5492,147.553 41.5938,146.489 38.711,145.241 35.9123,143.815 33.2087,142.216 30.6107,140.451 28.1288,138.526 25.7726,136.448 23.5516,134.227 21.4743,131.871 19.5492,129.389 17.7836,126.791 16.1847,124.088 14.7586,121.289 13.5112,118.406 12.4472,115.451 11.5708,112.434 10.8856,109.369 10.3943,106.267 10.0987,103.14 10,100 10.0987,96.8605 10.3943,93.7333 10.8856,90.6309 11.5708,87.5655 12.4472,84.5492 13.5112,81.5938 14.7586,78.711 16.1847,75.9123 17.7836,73.2087 19.5492,70.6107 21.4743,68.1288 23.5516,65.7726 25.7726,63.5516 28.1288,61.4743 30.6107,59.5492 33.2087,57.7836 35.9123,56.1847 38.711,54.7586 41.5938,53.5112 44.5492,52.4472 47.5655,51.5708 50.6309,50.8856 53.7333,50.3943 56.8605,50.0987 60,50 63.1395,50.0987 66.2667,50.3943 69.3691,50.8856 72.4345,51.5708 75.4508,52.4472 78.4062,53.5112 81.289,54.7586 84.0877,56.1847 86.7913,57.7836 89.3893,59.5492 91.8712,61.4743 94.2274,63.5516 96.4484,65.7726 98.5257,68.1288 100.451,70.6107 102.216,73.2087 103.815,75.9123 105.241,78.711 106.489,81.5938 107.553,84.5492 108.429,87.5655 109.114,90.6309 109.606,93.7333 109.901,96.8605 " fill="green" stroke="red" />
<polygon points="120,60 119.882,63.7674 119.527,67.52 118.937,71.2429 118.115,74.9214 117.063,78.541 115.787,82.0875 114.29,85.5468 112.578,88.9052 110.66,92.1496 108.541,95.2671 106.231,98.2454 103.738,101.073 101.073,103.738 98.2454,106.231 95.2671,108.541 92.1496,110.66 88.9052,112.578 85.5468,114.29 82.0875,115.787 78.541,117.063 74.9214,118.115 71.2429,118.937 67.52,119.527 63.7674,119.882 60,120 56.2326,119.882 52.48,119.527 48.7571,118.937 45.0786,118.115 41.459,117.063 37.9125,115.787 34.4532,114.29 31.0948,112.578 27.8504,110.66 24.7329,108.541 21.7546,106.231 18.9272,103.738 16.2619,101.073 13.7692,98.2454 11.459,95.2671 9.34032,92.1496 7.4216,88.9052 5.71038,85.5468 4.21341,82.0875 2.93661,78.541 1.88501,74.9214 1.06276,71.2429 0.473118,67.52 0.118396,63.7674 0,60 0.118396,56.2326 0.473118,52.48 1.06276,48.7571 1.88501,45.0786 2.93661,41.459 4.21341,37.9125 5.71038,34.4532 7.4216,31.0948 9.34032,27.8504 11.459,24.7329 13.7692,21.7546 16.2619,18.9272 18.9272,16.2619 21.7546,13.7692 24.7329,11.459 27.8504,9.34032 31.0948,7.4216 34.4532,5.71038 37.9125,4.21341 41.459,2.93661 45.0786,1.88501 48.7571,1.06276 52.48,0.473118 56.2326,0.118396 60,0 63.7674,0.118396 67.52,0.473118 71.2429,1.06276 74.9214,1.88501 78.541,2.93661 82.0875,4.21341 85.5468,5.71038 88.9052,7.4216 92.1496,9.34032 95.2671,11.459 98.2454,13.7692 101.073,16.2619 103.738,18.9272 106.231,21.7546 108.541,24.7329 110.66,27.8504 112.578,31.0948 114.29,34.4532 115.787,37.9125 117.063,41.459 118.115,45.0786 118.937,48.7571 119.527,52.48 119.882,56.2326 " fill="green" stroke="red" />
<polygon points="137.5,0 0,238 275,238 " fill="green" stroke="red" />
<polygon points="0,0 0,300 200,300 200,0 " fill="green" stroke="red" />
<polygon points="500,500 500,750 750,750 750,500 " fill="green" stroke="red" />
<polygon points="250,30 0,463 500,463 " fill="green" stroke="red" />
</svg>
